<svg width="133" height="133" viewBox="0 0 133 133" fill="none" xmlns="http://www.w3.org/2000/svg">
<path d="M133 66.5C133 77.919 130.123 88.6648 125.05 98.0535C123.758 100.453 122.319 102.763 120.748 104.972C108.699 121.934 88.8902 133 66.5 133C51.4167 133 37.5115 127.981 26.3558 119.518C23.9101 117.667 21.5977 115.648 19.4344 113.479C16.8123 110.851 14.4074 108.007 12.2524 104.972C10.6808 102.763 9.2422 100.453 7.95013 98.0537C2.87716 88.6648 0 77.919 0 66.5C0 48.1595 7.42358 31.5509 19.4344 19.5211C21.5977 17.3523 23.9101 15.3329 26.3558 13.4818C37.5115 5.01867 51.4167 0 66.5 0C103.227 0 133 29.773 133 66.5Z" fill="#FD5959"/>
<path d="M123.157 56.657C123.157 66.3857 120.706 75.5411 116.383 83.5401C115.283 85.5845 114.057 87.5524 112.718 89.4347C102.453 103.885 85.5758 113.314 66.4999 113.314C53.6491 113.314 41.8022 109.038 32.2979 101.828C30.2143 100.25 28.244 98.5301 26.401 96.6822C24.167 94.4438 22.1182 92.0202 20.2822 89.4347C18.9434 87.5524 17.7178 85.5845 16.6169 83.5401C12.2947 75.5411 9.84351 66.3857 9.84351 56.657C9.84351 41.031 16.1683 26.8811 26.4012 16.6318C28.2443 14.784 30.2146 13.0636 32.2982 11.4863C41.8022 4.27574 53.6491 0 66.4999 0C97.7908 0 123.157 25.3661 123.157 56.657Z" fill="#FD5959"/>
<path d="M25.5492 103.334L20.9487 100.451L42.3298 66.3239L69.6512 42.3174L95.1219 48.8389L120.001 11.5383L124.518 14.5503L97.5032 55.0517L71.0814 48.2871L46.5089 69.8783L25.5492 103.334Z" fill="#F0F0F0"/>
<path d="M26.3559 0V119.518C23.9102 117.667 21.5978 115.648 19.4344 113.479V0H26.3559Z" fill="#343A6E"/>
<path d="M125.05 98.0537C123.758 100.453 122.319 102.763 120.748 104.972H12.2524C10.6809 102.763 9.24227 100.453 7.9502 98.0537H125.05Z" fill="#343A6E"/>
<path d="M44.4195 74.6161C48.017 74.6161 50.9334 71.6998 50.9334 68.1023C50.9334 64.5047 48.017 61.5884 44.4195 61.5884C40.822 61.5884 37.9056 64.5047 37.9056 68.1023C37.9056 71.6998 40.822 74.6161 44.4195 74.6161Z" fill="#F9DF73"/>
<path d="M70.3651 51.8156C73.9626 51.8156 76.879 48.8992 76.879 45.3017C76.879 41.7042 73.9626 38.7878 70.3651 38.7878C66.7676 38.7878 63.8512 41.7042 63.8512 45.3017C63.8512 48.8992 66.7676 51.8156 70.3651 51.8156Z" fill="#F9DF73"/>
<path d="M96.314 58.4604C99.9116 58.4604 102.828 55.544 102.828 51.9465C102.828 48.349 99.9116 45.4326 96.314 45.4326C92.7165 45.4326 89.8002 48.349 89.8002 51.9465C89.8002 55.544 92.7165 58.4604 96.314 58.4604Z" fill="#F9DF73"/>
<path d="M122.26 19.5593C125.857 19.5593 128.774 16.6428 128.774 13.0451C128.774 9.44749 125.857 6.53101 122.26 6.53101C118.662 6.53101 115.745 9.44749 115.745 13.0451C115.745 16.6428 118.662 19.5593 122.26 19.5593Z" fill="#F9DF73"/>
</svg>
