<svg width="24" height="24" viewBox="0 0 24 24" fill="none" xmlns="http://www.w3.org/2000/svg">
<path fill-rule="evenodd" clip-rule="evenodd" d="M2.85355 2.14645C2.65829 1.95118 2.34171 1.95118 2.14645 2.14645C1.95118 2.34171 1.95118 2.65829 2.14645 2.85355L11.229 11.9361L2.14648 21.0186C1.95122 21.2138 1.95122 21.5304 2.14648 21.7257C2.34174 21.9209 2.65832 21.9209 2.85358 21.7257L11.9361 12.6432L11.9361 12.6432L11.9361 12.6431L21.0187 21.7257C21.2139 21.9209 21.5305 21.9209 21.7258 21.7257C21.921 21.5304 21.921 21.2138 21.7258 21.0186L12.6433 11.936L21.7257 2.85355C21.921 2.65829 21.921 2.34171 21.7257 2.14645C21.5305 1.95118 21.2139 1.95118 21.0186 2.14645L11.9361 11.2289L11.9361 11.2289L11.9361 11.229L2.85355 2.14645Z" fill="#5A5A89"/>
</svg>
