<svg width="10" height="10" viewBox="0 0 10 10" fill="none" xmlns="http://www.w3.org/2000/svg">
<path fill-rule="evenodd" clip-rule="evenodd" d="M0.853553 0.146446C0.658291 -0.0488153 0.341709 -0.0488153 0.146447 0.146446C-0.0488155 0.341709 -0.0488155 0.65829 0.146447 0.853553L3.90414 4.61125L0.146521 8.36887C-0.0487413 8.56413 -0.0487413 8.88071 0.146521 9.07597C0.341783 9.27123 0.658365 9.27123 0.853628 9.07597L4.61127 5.31833L8.36892 9.07597C8.56418 9.27123 8.88076 9.27123 9.07603 9.07597C9.27129 8.88071 9.27129 8.56413 9.07603 8.36887L5.31833 4.61117L9.07595 0.853553C9.27121 0.65829 9.27121 0.341709 9.07595 0.146446C8.88069 -0.0488153 8.56411 -0.0488153 8.36884 0.146446L4.6112 3.90409L0.853553 0.146446Z" fill="#5A5A89" fill-opacity="0.5"/>
</svg>
