<svg width="271" height="206" viewBox="0 0 271 206" fill="none" xmlns="http://www.w3.org/2000/svg">
<path opacity="0.2" d="M55.877 56.0634C58.356 49.4113 64.7076 45 71.8067 45H246.522C258.377 45 266.592 56.8281 262.452 67.9366L215.123 194.937C212.644 201.589 206.292 206 199.193 206H24.4775C12.6228 206 4.40798 194.172 8.54777 183.063L55.877 56.0634Z" fill="white"/>
<path opacity="0.4" d="M37.0538 38.3316C38.7748 30.5442 45.678 25 53.6533 25H229.833C240.701 25 248.778 35.0569 246.432 45.6684L213.946 192.668C212.225 200.456 205.322 206 197.347 206H21.1671C10.2996 206 2.22254 195.943 4.56763 185.332L37.0538 38.3316Z" fill="white"/>
<path opacity="0.6" d="M18.4759 20.3168C19.341 11.6227 26.6554 5 35.3924 5H212.224C222.279 5 230.136 13.6784 229.141 23.6832L212.524 190.683C211.659 199.377 204.345 206 195.608 206H18.7755C8.72122 206 0.863476 197.322 1.85898 187.317L18.4759 20.3168Z" fill="white"/>
<path d="M0 17C0 7.61117 7.61116 0 17 0H194C203.389 0 211 7.61116 211 17V189C211 198.389 203.389 206 194 206H17C7.61116 206 0 198.389 0 189V17Z" fill="white"/>
<path opacity="0.8" fill-rule="evenodd" clip-rule="evenodd" d="M137.875 102.182C137.875 83.5715 123.285 68.6616 105.5 68.6616L105.5 45.0001C136.247 45.0001 161 70.6989 161 102.182C161 133.665 136.247 159.364 105.5 159.364L105.5 135.702C123.285 135.702 137.875 120.792 137.875 102.182Z" fill="#262146"/>
<path fill-rule="evenodd" clip-rule="evenodd" d="M82.375 102.182C82.375 83.5715 67.7852 68.6616 50 68.6616L50 45.0001C80.7468 45.0001 105.5 70.6989 105.5 102.182C105.5 133.665 80.7468 159.364 50 159.364L50 135.702C67.7852 135.702 82.375 120.792 82.375 102.182Z" fill="#262146"/>
<path d="M105.5 159.364H50V135.818H105.5V159.364Z" fill="#514D6B"/>
<path d="M105.5 68.5455H50V45.0001H105.5V68.5455Z" fill="#FF3E3E"/>
</svg>
