<svg width="133" height="133" viewBox="0 0 133 133" fill="none" xmlns="http://www.w3.org/2000/svg">
<path d="M66.4999 133C103.227 133 133 103.227 133 66.4999C133 29.773 103.227 0 66.4999 0C29.773 0 0 29.773 0 66.4999C0 103.227 29.773 133 66.4999 133Z" fill="#FD5959"/>
<path d="M66.5002 112.013C97.4318 112.013 122.507 86.9382 122.507 56.0066C122.507 25.075 97.4318 0 66.5002 0C35.5686 0 10.4937 25.075 10.4937 56.0066C10.4937 86.9382 35.5686 112.013 66.5002 112.013Z" fill="#FD5959"/>
<path d="M120.314 105.578C118.645 107.871 116.834 110.054 114.894 112.111C112.052 115.124 108.933 117.871 105.579 120.314L95.9427 110.678C93.9069 108.645 92.8892 105.977 92.8892 103.309C92.8892 100.643 93.9069 97.978 95.9427 95.9424C100.011 91.8737 106.61 91.8737 110.679 95.9424L120.314 105.578Z" fill="#484B7F"/>
<path d="M105.577 120.315C107.871 118.646 110.053 116.835 112.111 114.895L101.919 104.702C98.9138 101.698 98.1293 97.314 99.5653 93.5874C98.2434 94.095 97.0058 94.8766 95.9418 95.9435C93.906 97.9764 92.8909 100.645 92.8909 103.313C92.8909 105.978 93.906 108.644 95.9418 110.679L105.577 120.315Z" fill="#343A6E"/>
<path d="M51.6555 103.311C80.184 103.311 103.311 80.184 103.311 51.6555C103.311 23.1269 80.184 0 51.6555 0C23.1269 0 0 23.1269 0 51.6555C0 80.184 23.1269 103.311 51.6555 103.311Z" fill="#343A6E"/>
<path d="M22.2807 81.0271C23.5131 82.2594 24.8023 83.3967 26.1432 84.4417C41.1042 96.1105 62.2134 96.1105 77.169 84.4391C78.507 83.3941 79.7965 82.2568 81.026 81.0274C97.2493 64.8067 97.2493 38.5053 81.026 22.2821C64.8054 6.06142 38.504 6.06142 22.2807 22.2821C6.06007 38.5048 6.06007 64.8065 22.2807 81.0271Z" fill="#A9C7E0"/>
<path d="M39.5698 81.0268C23.3481 64.8051 23.3481 38.5042 39.5698 22.2826C45.4693 16.383 52.702 12.6317 60.2979 11.0232C47.0072 8.20889 32.6041 11.9604 22.2815 22.2826C6.05982 38.5042 6.05982 64.8051 22.2815 81.0268C32.6039 91.3492 47.0069 95.101 60.2979 92.2862C52.702 90.6779 45.4693 86.9264 39.5698 81.0268Z" fill="#5897D1"/>
<path d="M97.8111 78.5482L78.5478 97.8115C75.9917 100.368 75.9917 104.512 78.5478 107.068C81.1039 109.624 85.248 109.624 87.8041 107.068L107.067 87.8045C109.623 85.2484 109.623 81.1043 107.067 78.5482C104.511 75.9921 100.367 75.9921 97.8111 78.5482Z" fill="#484B7F"/>
<path d="M86.4419 99.1739C83.8858 96.6178 83.8858 92.4737 86.4419 89.9176L78.5478 97.8117C75.9917 100.368 75.9917 104.512 78.5478 107.068C81.1039 109.624 85.248 109.624 87.8041 107.068L95.6982 99.1739C93.1423 101.73 88.998 101.73 86.4419 99.1739Z" fill="#343A6E"/>
<path d="M51.6541 17.4303C60.7961 17.4303 69.3902 20.9902 75.854 27.4537C82.3188 33.9185 85.8792 42.5137 85.8792 51.6557C85.8792 60.7974 82.3188 69.3916 75.8538 75.8556C74.8526 76.8568 73.78 77.8054 72.6677 78.6741C66.7141 83.32 59.252 85.8792 51.6562 85.8792C44.0608 85.8792 36.598 83.3211 30.6395 78.6736C29.5287 77.808 28.4564 76.8599 27.4521 75.8556C20.9886 69.3921 17.4287 60.7977 17.4287 51.6557C17.4287 42.5135 20.9886 33.918 27.4516 27.4542C33.9167 20.9902 42.5121 17.4303 51.6541 17.4303ZM51.6541 9.08533C40.7595 9.08533 29.8643 13.2411 21.5512 21.5529C4.92823 38.1787 4.92823 65.1332 21.5512 81.7562C22.8142 83.0192 24.1354 84.1848 25.5096 85.2555C33.175 91.2341 42.4165 94.224 51.6562 94.224C60.8982 94.224 70.1376 91.2343 77.8017 85.2527C79.173 84.1817 80.4942 83.0161 81.7546 81.7562C98.3807 65.1332 98.3807 38.1787 81.7546 21.5529C73.4434 13.2411 62.549 9.08533 51.6541 9.08533Z" fill="#F0F0F0"/>
</svg>
